<svg width="77" height="67" viewBox="0 0 77 67" fill="none" xmlns="http://www.w3.org/2000/svg">
<path d="M7.344 50.548L6.192 45.652L18.936 32.8H25.488L7.344 50.548ZM3.276 58V32.8H8.676V58H3.276ZM19.62 58L10.188 45.472L13.896 42.268L26.028 58H19.62ZM29.819 58V32.8H40.979C42.539 32.8 43.955 33.16 45.227 33.88C46.499 34.576 47.495 35.524 48.215 36.724C48.959 37.924 49.331 39.292 49.331 40.828C49.331 42.34 48.959 43.72 48.215 44.968C47.495 46.192 46.499 47.164 45.227 47.884C43.955 48.604 42.539 48.964 40.979 48.964H35.039V58H29.819ZM44.111 58L37.703 46.624L43.247 45.724L50.375 58.036L44.111 58ZM35.039 44.572H40.727C41.375 44.572 41.939 44.428 42.419 44.14C42.923 43.828 43.307 43.408 43.571 42.88C43.835 42.328 43.967 41.716 43.967 41.044C43.967 40.324 43.811 39.7 43.499 39.172C43.187 38.644 42.731 38.236 42.131 37.948C41.531 37.636 40.835 37.48 40.043 37.48H35.039V44.572ZM52.038 58L61.902 32.8H66.726L76.554 58H71.01L65.934 44.428C65.79 44.044 65.61 43.552 65.394 42.952C65.202 42.352 64.998 41.716 64.782 41.044C64.566 40.372 64.362 39.736 64.17 39.136C63.978 38.512 63.834 37.996 63.738 37.588L64.71 37.552C64.566 38.104 64.398 38.68 64.206 39.28C64.038 39.856 63.858 40.456 63.666 41.08C63.474 41.68 63.27 42.268 63.054 42.844C62.838 43.42 62.634 43.984 62.442 44.536L57.366 58H52.038ZM56.61 52.708L58.374 48.352H69.93L71.73 52.708H56.61Z" fill="black"/>
<line x1="11.5858" y1="43.5858" x2="52.5858" y2="2.58579" stroke="black" stroke-width="4"/>
<line x1="72.1173" y1="53.6749" x2="53.1173" y2="0.674921" stroke="black" stroke-width="4"/>
</svg>
